Normalized EMG Linear Envelopes
nRows=259
nColumns=4

endheader
time	 med_gas_r	  soleus_r	 tib_ant_r	
3.65927	  0.005345	  0.017099	  0.002781	
3.69254	  0.005512	  0.017277	  0.002861	
3.72581	  0.005653	  0.017474	  0.002942	
3.75907	  0.005754	  0.017694	  0.003023	
3.79234	  0.005809	  0.017918	  0.003098	
3.8256	  0.005829	  0.018128	  0.003158	
3.85887	  0.005832	  0.018333	  0.003200	
3.89214	  0.005847	  0.018561	  0.003223	
3.9254	  0.005898	  0.018840	  0.003232	
3.95867	  0.006006	  0.019165	  0.003234	
3.99194	  0.006181	  0.019488	  0.003232	
4.0252	  0.006415	  0.019729	  0.003229	
4.05847	  0.006694	  0.019818	  0.003226	
4.09173	  0.007010	  0.019722	  0.003222	
4.125	  0.007363	  0.019466	  0.003217	
4.15827	  0.007751	  0.019110	  0.003208	
4.19153	  0.008130	  0.018723	  0.003195	
4.2248	  0.008410	  0.018354	  0.003179	
4.25806	  0.008490	  0.018051	  0.003165	
4.29133	  0.008321	  0.017866	  0.003155	
4.3246	  0.007944	  0.017865	  0.003148	
4.35786	  0.007466	  0.018090	  0.003137	
4.39113	  0.007001	  0.018534	  0.003118	
4.4244	  0.006626	  0.019119	  0.003092	
4.45766	  0.006364	  0.019720	  0.003061	
4.49093	  0.006209	  0.020223	  0.003031	
4.52419	  0.006140	  0.020586	  0.003007	
4.55746	  0.006133	  0.020856	  0.002988	
4.59073	  0.006169	  0.021130	  0.002974	
4.62399	  0.006226	  0.021480	  0.002965	
4.65726	  0.006287	  0.021900	  0.002964	
4.69052	  0.006336	  0.022310	  0.002970	
4.72379	  0.006365	  0.022600	  0.002983	
4.75706	  0.006375	  0.022671	  0.003004	
4.79032	  0.006374	  0.022477	  0.003033	
4.82359	  0.006376	  0.022060	  0.003071	
4.85685	  0.006389	  0.021559	  0.003119	
4.89012	  0.006413	  0.021189	  0.003173	
4.92339	  0.006433	  0.021156	  0.003226	
4.95665	  0.006425	  0.021575	  0.003270	
4.98992	  0.006366	  0.022417	  0.003294	
5.02319	  0.006251	  0.023530	  0.003294	
5.05645	  0.006099	  0.024695	  0.003270	
5.08972	  0.005941	  0.025695	  0.003230	
5.12298	  0.005805	  0.026371	  0.003186	
5.15625	  0.005710	  0.026634	  0.003152	
5.18952	  0.005665	  0.026462	  0.003138	
5.22278	  0.005674	  0.025885	  0.003147	
5.25605	  0.005728	  0.024972	  0.003179	
5.28931	  0.005803	  0.023835	  0.003229	
5.32258	  0.005861	  0.022625	  0.003292	
5.35585	  0.005875	  0.021505	  0.003369	
5.38911	  0.005846	  0.020615	  0.003468	
5.42238	  0.005807	  0.020039	  0.003598	
5.45565	  0.005795	  0.019789	  0.003760	
5.48891	  0.005829	  0.019826	  0.003935	
5.52218	  0.005894	  0.020080	  0.004084	
5.55544	  0.005954	  0.020471	  0.004149	
5.58871	  0.005969	  0.020908	  0.004049	
5.62198	  0.005913	  0.021277	  0.003681	
5.65524	  0.005780	  0.021431	  0.002932	
5.68851	  0.005576	  0.021203	  0.001692	
5.72177	  0.005318	  0.020447	 -0.000123	
5.75504	  0.005024	  0.019091	 -0.002543	
5.78831	  0.004716	  0.017192	 -0.005483	
5.82157	  0.004425	  0.014950	 -0.008643	
5.85484	  0.004196	  0.012709	 -0.011402	
5.8881	  0.004100	  0.010955	 -0.012761	
5.92137	  0.004248	  0.010352	 -0.011335	
5.95464	  0.004792	  0.011824	 -0.005320	
5.9879	  0.005932	  0.016622	  0.007562	
6.02117	  0.007886	  0.026267	  0.029949	
6.05444	  0.010845	  0.042301	  0.064207	
6.0877	  0.014918	  0.065864	  0.111305	
6.12097	  0.020075	  0.097235	  0.169815	
6.15423	  0.026124	  0.135511	  0.235995	
6.1875	  0.032724	  0.178448	  0.305237	
6.22077	  0.039424	  0.222520	  0.373912	
6.25403	  0.045709	  0.263334	  0.440181	
6.2873	  0.051071	  0.296587	  0.503223	
6.32056	  0.055096	  0.319410	  0.561811	
6.35383	  0.057569	  0.331396	  0.613704	
6.3871	  0.058565	  0.334626	  0.656369	
6.42036	  0.058442	  0.332652	  0.688251	
6.45363	  0.057736	  0.329075	  0.709436	
6.4869	  0.056963	  0.326395	  0.721275	
6.52016	  0.056438	  0.325426	  0.725483	
6.55343	  0.056196	  0.325379	  0.723510	
6.58669	  0.056066	  0.324619	  0.716544	
6.61996	  0.055823	  0.321791	  0.705849	
6.65323	  0.055344	  0.316616	  0.693044	
6.68649	  0.054661	  0.309877	  0.680129	
6.71976	  0.053899	  0.302811	  0.669240	
6.75302	  0.053137	  0.296595	  0.662029	
6.78629	  0.052331	  0.292317	  0.658742	
6.81956	  0.051353	  0.291173	  0.657585	
6.85282	  0.050112	  0.294295	  0.655256	
6.88609	  0.048667	  0.302065	  0.648665	
6.91935	  0.047247	  0.313453	  0.636665	
6.95262	  0.046171	  0.326119	  0.620390	
6.98589	  0.045734	  0.337378	  0.602154	
7.01915	  0.046074	  0.345222	  0.584079	
7.05242	  0.047100	  0.348652	  0.567542	
7.08569	  0.048505	  0.347449	  0.553401	
7.11895	  0.049887	  0.342083	  0.542366	
7.15222	  0.050919	  0.333916	  0.535156	
7.18548	  0.051459	  0.325075	  0.532507	
7.21875	  0.051545	  0.317515	  0.535096	
7.25202	  0.051294	  0.311828	  0.543380	
7.28528	  0.050803	  0.306916	  0.557470	
7.31855	  0.050144	  0.300904	  0.577186	
7.35181	  0.049402	  0.292605	  0.602080	
7.38508	  0.048694	  0.282417	  0.630992	
7.41835	  0.048121	  0.272182	  0.661292	
7.45161	  0.047713	  0.264298	  0.688685	
7.48488	  0.047427	  0.260701	  0.708345	
7.51815	  0.047197	  0.262191	  0.716930	
7.55141	  0.046981	  0.268372	  0.714036	
7.58468	  0.046766	  0.278294	  0.702083	
7.61794	  0.046549	  0.291421	  0.684925	
7.65121	  0.046330	  0.308225	  0.666315	
7.68448	  0.046120	  0.329763	  0.649029	
7.71774	  0.045945	  0.356324	  0.634699	
7.75101	  0.045807	  0.386187	  0.623988	
7.78427	  0.045648	  0.415624	  0.616807	
7.81754	  0.045368	  0.440459	  0.612587	
7.85081	  0.044916	  0.458152	  0.610721	
7.88407	  0.044373	  0.468878	  0.610997	
7.91734	  0.043935	  0.474874	  0.613537	
7.9506	  0.043792	  0.478764	  0.618026	
7.98387	  0.044002	  0.482216	  0.622799	
8.01714	  0.044467	  0.485677	  0.624879	
8.0504	  0.045009	  0.488860	  0.621396	
8.08367	  0.045485	  0.491087	  0.611473	
8.11694	  0.045846	  0.491034	  0.597044	
8.1502	  0.046127	  0.486374	  0.581954	
8.18347	  0.046419	  0.474282	  0.570094	
8.21673	  0.046831	  0.453120	  0.563876	
8.25	  0.047449	  0.424216	  0.563688	
8.28327	  0.048302	  0.392031	  0.568216	
8.31653	  0.049337	  0.362132	  0.575220	
8.3498	  0.050439	  0.338314	  0.582468	
8.38306	  0.051493	  0.321023	  0.588475	
8.41633	  0.052441	  0.308135	  0.592779	
8.4496	  0.053283	  0.297162	  0.595778	
8.48286	  0.054033	  0.287026	  0.598430	
8.51613	  0.054671	  0.278172	  0.601887	
8.5494	  0.055136	  0.271421	  0.606921	
8.58266	  0.055360	  0.266941	  0.613322	
8.61593	  0.055292	  0.264294	  0.619802	
8.64919	  0.054892	  0.263278	  0.624608	
8.68246	  0.054112	  0.264462	  0.626331	
8.71573	  0.052913	  0.268762	  0.624266	
8.74899	  0.051355	  0.276457	  0.618296	
8.78226	  0.049656	  0.286596	  0.608670	
8.81552	  0.048164	  0.297425	  0.595898	
8.84879	  0.047199	  0.307709	  0.580655	
8.88206	  0.046894	  0.318012	  0.563696	
8.91532	  0.047172	  0.330900	  0.545943	
8.94859	  0.047847	  0.349686	  0.528809	
8.98185	  0.048750	  0.376507	  0.514450	
9.01512	  0.049762	  0.410976	  0.505462	
9.04839	  0.050762	  0.450129	  0.503885	
9.08165	  0.051608	  0.489516	  0.509980	
9.11492	  0.052214	  0.524922	  0.521740	
9.14819	  0.052650	  0.554040	  0.535881	
9.18145	  0.053154	  0.577303	  0.549945	
9.21472	  0.054008	  0.597240	  0.563843	
9.24798	  0.055366	  0.616621	  0.579270	
9.28125	  0.057156	  0.636664	  0.597263	
9.31452	  0.059125	  0.656526	  0.616139	
9.34778	  0.060960	  0.674229	  0.631827	
9.38105	  0.062436	  0.687978	  0.640285	
9.41431	  0.063469	  0.696816	  0.639718	
9.44758	  0.064088	  0.700459	  0.630996	
9.48085	  0.064342	  0.698961	  0.616685	
9.51411	  0.064244	  0.692849	  0.600081	
9.54738	  0.063819	  0.683656	  0.584757	
9.58065	  0.063239	  0.674301	  0.574111	
9.61391	  0.062939	  0.668714	  0.570621	
9.64718	  0.063586	  0.670637	  0.575173	
9.68044	  0.065857	  0.682164	  0.586928	
9.71371	  0.070143	  0.702914	  0.603736	
9.74698	  0.076378	  0.730424	  0.622808	
9.78024	  0.084095	  0.761448	  0.641502	
9.81351	  0.092629	  0.793150	  0.658085	
9.84677	  0.101306	  0.823429	  0.672139	
9.88004	  0.109490	  0.850505	  0.684190	
9.91331	  0.116557	  0.872524	  0.694613	
9.94657	  0.121911	  0.887605	  0.702557	
9.97984	  0.125110	  0.894066	  0.705828	
10.0131	  0.125975	  0.890468	  0.701930	
10.0464	  0.124553	  0.875553	  0.689400	
10.0796	  0.120916	  0.848360	  0.668364	
10.1129	  0.115005	  0.808554	  0.640110	
10.1462	  0.106684	  0.756642	  0.606389	
10.1794	  0.096022	  0.693806	  0.569093	
10.2127	  0.083575	  0.621596	  0.530227	
10.246	  0.070434	  0.541966	  0.491766	
10.2792	  0.057936	  0.457891	  0.455306	
10.3125	  0.047199	  0.374052	  0.421812	
10.3458	  0.038782	  0.296676	  0.391681	
10.379	  0.032642	  0.232086	  0.364981	
10.4123	  0.028366	  0.184584	  0.341645	
10.4456	  0.025455	  0.154947	  0.321532	
10.4788	  0.023501	  0.140417	  0.304439	
10.5121	  0.022222	  0.136079	  0.290127	
10.5454	  0.021423	  0.136737	  0.278266	
10.5786	  0.020964	  0.138400	  0.268347	
10.6119	  0.020738	  0.138960	  0.259732	
10.6452	  0.020666	  0.138161	  0.251931	
10.6784	  0.020704	  0.137111	  0.244870	
10.7117	  0.020852	  0.137525	  0.238754	
10.745	  0.021145	  0.140851	  0.233566	
10.7782	  0.021621	  0.147472	  0.228781	
10.8115	  0.022280	  0.156364	  0.223746	
10.8448	  0.023043	  0.165414	  0.218354	
10.878	  0.023744	  0.172226	  0.213150	
10.9113	  0.024163	  0.174933	  0.208605	
10.9446	  0.024101	  0.172659	  0.204364	
10.9778	  0.023476	  0.165611	  0.199398	
11.0111	  0.022365	  0.154903	  0.192882	
11.0444	  0.020943	  0.142175	  0.184754	
11.0776	  0.019376	  0.129006	  0.175341	
11.1109	  0.017753	  0.116404	  0.164633	
11.1442	  0.016114	  0.104667	  0.152208	
11.1774	  0.014521	  0.093710	  0.137866	
11.2107	  0.013084	  0.083491	  0.122162	
11.244	  0.011917	  0.074173	  0.106173	
11.2772	  0.011083	  0.065956	  0.090838	
11.3105	  0.010576	  0.058863	  0.076589	
11.3437	  0.010353	  0.052743	  0.063519	
11.377	  0.010349	  0.047425	  0.051737	
11.4103	  0.010481	  0.042833	  0.041486	
11.4435	  0.010637	  0.038945	  0.032991	
11.4768	  0.010688	  0.035681	  0.026281	
11.5101	  0.010532	  0.032861	  0.021125	
11.5433	  0.010133	  0.030275	  0.017122	
11.5766	  0.009527	  0.027798	  0.013860	
11.6099	  0.008804	  0.025446	  0.011060	
11.6431	  0.008066	  0.023325	  0.008615	
11.6764	  0.007403	  0.021526	  0.006536	
11.7097	  0.006875	  0.020060	  0.004863	
11.7429	  0.006506	  0.018875	  0.003604	
11.7762	  0.006289	  0.017922	  0.002724	
11.8095	  0.006193	  0.017194	  0.002166	
11.8427	  0.006172	  0.016716	  0.001863	
11.876	  0.006183	  0.016513	  0.001740	
11.9093	  0.006199	  0.016589	  0.001727	
11.9425	  0.006210	  0.016936	  0.001769	
11.9758	  0.006221	  0.017530	  0.001837	
12.0091	  0.006236	  0.018325	  0.001917	
12.0423	  0.006239	  0.019242	  0.002000	
12.0756	  0.006199	  0.020167	  0.002071	
12.1089	  0.006075	  0.020970	  0.002110	
12.1421	  0.005840	  0.021531	  0.002107	
12.1754	  0.005492	  0.021775	  0.002062	
12.2087	  0.005063	  0.021704	  0.001984	
12.2419	  0.004595	  0.021400	  0.001888	
